<?xml version="1.0" encoding="utf-8"?>
<!-- Generator: Adobe Illustrator 23.0.3, SVG Export Plug-In . SVG Version: 6.00 Build 0)  -->
<svg version="1.1" xmlns="http://www.w3.org/2000/svg" xmlns:xlink="http://www.w3.org/1999/xlink" x="0px" y="0px"
	 viewBox="0 0 500 500" style="enable-background:new 0 0 500 500;" xml:space="preserve">
<style type="text/css">
	.st0{fill:#F25F5C;}
	.st1{display:none;}
	.st2{display:inline;}
	.st3{fill:#1F2833;}
</style>
<g id="Layer_1">
	<path class="st0" d="M383.14,214.5C370.82,152,315.94,105.08,250,105.08c-52.35,0-97.82,29.71-120.46,73.18
		c-0.43,0.05-0.86,0.09-1.28,0.14c-53.91,6.38-95.63,52.28-95.63,107.82c0,59.96,48.73,108.69,108.69,108.69H376.8
		c50,0,90.57-40.58,90.57-90.57C467.38,256.52,430.24,217.76,383.14,214.5z M95,272c12,2,23,11,36,10c-4-10-14-15-22-22
		c8,7,18,12,22,22C118,283,107,274,95,272z M274,238c4-6,8-12,13-18C282,226,278,232,274,238z M234,268c19-17,38-33,54-53
		C272,235,253,251,234,268z"/>
</g>
<g id="Layer_3" class="st1">
	<polyline class="st2" points="233.58,291.06 200.73,258.21 212.31,246.63 233.58,267.82 287.69,213.7 299.27,225.36 	"/>
	<line class="st2" x1="235.76" y1="288.87" x2="233.58" y2="291.06"/>
	<line class="st2" x1="299.27" y1="225.36" x2="235.76" y2="288.87"/>
</g>
<g id="Layer_2">
	<path class="st3" d="M250,143.01l-87.54,38.91v58.36c0,53.98,37.35,104.46,87.54,116.72c50.19-12.26,87.54-62.74,87.54-116.72
		v-58.36L250,143.01z M230.55,298.63l-38.91-38.91l13.71-13.71l25.19,25.09l64.1-64.1l13.71,13.81L230.55,298.63z"/>
</g>
</svg>
